<svg width="464" height="412" viewBox="0 0 464 412" fill="none" xmlns="http://www.w3.org/2000/svg">
<ellipse cx="346.639" cy="117.121" rx="263.5" ry="234" transform="rotate(167.323 346.639 117.121)" fill="#A8A7F1" fill-opacity="0.39"/>
<path d="M90.0497 174.837C61.7614 49.0752 153.63 -78.7985 295.397 -110.687C437.163 -142.575 574.939 -66.3565 603.228 59.4056C631.516 185.168 539.647 313.041 397.881 344.929C256.114 376.818 118.338 300.599 90.0497 174.837Z" stroke="#A8A7F1" stroke-opacity="0.39"/>
<ellipse cx="95.2255" cy="173.161" rx="42.1545" ry="41.5241" transform="rotate(171.523 95.2255 173.161)" fill="#A8A7F1" fill-opacity="0.39"/>
<path d="M54.0261 179.301C50.6873 156.898 66.4174 135.977 89.1782 132.585C111.939 129.192 133.086 144.618 136.425 167.02C139.764 189.423 124.034 210.344 101.273 213.737C78.5119 217.129 57.3648 201.703 54.0261 179.301Z" stroke="#A8A7F1" stroke-opacity="0.39"/>
</svg>
