<svg width="361" height="333" viewBox="0 0 361 333" fill="none" xmlns="http://www.w3.org/2000/svg">
<ellipse cx="57.5" cy="234" rx="263.5" ry="234" fill="#A8A7F1" fill-opacity="0.39"/>
<path d="M320.5 234C320.5 362.904 202.808 467.5 57.5 467.5C-87.8083 467.5 -205.5 362.904 -205.5 234C-205.5 105.096 -87.8083 0.5 57.5 0.5C202.808 0.5 320.5 105.096 320.5 234Z" stroke="#A8A7F1" stroke-opacity="0.39"/>
<ellipse cx="315.082" cy="234.5" rx="42.1544" ry="41.5241" transform="rotate(4.20012 315.082 234.5)" fill="#A8A7F1" fill-opacity="0.39"/>
<path d="M356.625 237.551C354.966 260.14 335.028 277.099 312.078 275.414C289.127 273.728 271.881 254.038 273.54 231.449C275.199 208.86 295.137 191.901 318.087 193.586C341.038 195.271 358.284 214.962 356.625 237.551Z" stroke="#A8A7F1" stroke-opacity="0.39"/>
</svg>
